<?xml version="1.0" standalone="no"?>
<svg viewBox="0 0 200 200" xmlns="http://www.w3.org/2000/svg">
  <path fill="#FF0066" d="M44.1,-74.9C57.2,-68.9,67.8,-57.1,75,-43.6C82.2,-30.1,86.1,-15.1,85.1,-0.6C84,13.9,78.1,27.8,69.4,38.7C60.8,49.6,49.3,57.6,37.3,63.2C25.2,68.9,12.6,72.3,-1.8,75.4C-16.2,78.5,-32.3,81.2,-44.7,75.7C-57,70.2,-65.5,56.5,-71.8,42.5C-78.1,28.5,-82.1,14.2,-82.9,-0.5C-83.7,-15.2,-81.3,-30.3,-73.4,-41.7C-65.6,-53,-52.4,-60.5,-39.3,-66.5C-26.1,-72.5,-13.1,-77,1.2,-79.1C15.5,-81.3,31.1,-81,44.1,-74.9Z" transform="translate(100 100)" />
</svg>
